<svg height="512" viewBox="0 0 64 64" width="512" xmlns="http://www.w3.org/2000/svg"><g id="Fill_Outline" data-name="Fill Outline"><g id="Stroke_copy" data-name="Stroke copy"><g><path d="m18 39h29a10 10 0 0 1 10 10v12a0 0 0 0 1 0 0h-50a0 0 0 0 1 0 0v-11a11 11 0 0 1 11-11z" fill="#c4f236"/><g fill="#a1d51c"><circle cx="43" cy="52" r="3"/><g><path d="m36.888 39h-15.788a11.89 11.89 0 0 0 15.791 0z"/><path d="m33 55a13 13 0 0 1 -13-13v-3h-2a11 11 0 0 0 -11 11v11h50v-6z"/></g><path d="m29 59h3v-14l-3 3z"/></g><path d="m25 33h14a0 0 0 0 1 0 0v5a7 7 0 0 1 -7 7 7 7 0 0 1 -7-7v-5a0 0 0 0 1 0 0z" fill="#fcbc04"/><path d="m36 43a6.964 6.964 0 0 1 -4.133-1.359 12 12 0 0 0 7.133-5.041v-3.6h-14v5a7 7 0 0 0 11.973 4.925 7.1 7.1 0 0 1 -.973.075z" fill="#e59730"/><path d="m42.4 27.2-10.4 7.8-10.4-7.8a14 14 0 0 1 -5.6-11.2l16-12 16 12a14 14 0 0 1 -5.6 11.2z" fill="#7ab92d"/><path d="m20 12h24a0 0 0 0 1 0 0v14a12 12 0 0 1 -12 12 12 12 0 0 1 -12-12v-14a0 0 0 0 1 0 0z" fill="#f9e109"/><path d="m34.926 34.953a12.263 12.263 0 0 1 -10.926-12.353 6.464 6.464 0 0 1 6.312-6.489 45.507 45.507 0 0 1 13.688 1.895v-6.006h-24v14a11.989 11.989 0 0 0 21.019 7.9 12 12 0 0 1 -6.093 1.053z" fill="#fcbc04"/><path d="m32 38a8 8 0 0 1 -8-8v-4a32.984 32.984 0 0 1 16 0v4a8 8 0 0 1 -8 8z" fill="#84d2f4"/><path d="m48 16a45.573 45.573 0 0 0 -32 0 13 13 0 0 1 13-13h6a13 13 0 0 1 13 13z" fill="#c4f236"/><circle cx="45" cy="50" fill="#84d2f4" r="3"/><path d="m46 52a3 3 0 0 1 -3-3 2.965 2.965 0 0 1 .446-1.554 2.992 2.992 0 1 0 4.108 4.108 2.965 2.965 0 0 1 -1.554.446z" fill="#57b7eb"/><path d="m39.762 11.169a12.461 12.461 0 0 1 -9.097-8.169h-1.665a13 13 0 0 0 -13 13 45.573 45.573 0 0 1 32 0 12.962 12.962 0 0 0 -.384-3.085z" fill="#a1d51c"/><path d="m35 34a8 8 0 0 1 -8-8v-.588c-1.006.154-2.008.34-3 .588v4a8 8 0 0 0 15.575 2.557 7.954 7.954 0 0 1 -4.575 1.443z" fill="#57b7eb"/></g></g><g id="Outline_copy" data-name="Outline copy"><g fill="#323232"><path d="m47 38h-1.351a6.019 6.019 0 0 0 -3.7-3.653 12.934 12.934 0 0 0 3.039-8.191 14.889 14.889 0 0 0 4.012-10.156 14.015 14.015 0 0 0 -14-14h-6a13.949 13.949 0 0 0 -7.547 2.22 1 1 0 1 0 1.08 1.68 11.976 11.976 0 0 1 4.815-1.786 11.489 11.489 0 0 0 -2.619 4.586 1 1 0 0 0 1.907.6c1.022-3.218 3.128-5.3 5.364-5.3s4.342 2.082 5.364 5.3a1 1 0 0 0 1.907-.6 11.517 11.517 0 0 0 -2.607-4.57 12.017 12.017 0 0 1 10.249 10.423c-.822-.276-1.663-.525-2.513-.758-.016-.007-.035-.009-.052-.016-1-.271-2-.518-3.029-.727a1 1 0 0 0 -.4 1.959c.7.144 1.394.308 2.082.482v6.093l-3.321 3.321a34.1 34.1 0 0 0 -15.444.019l-3.236-2.426v-3.791a1 1 0 0 0 -2 0v4.177a12.848 12.848 0 0 1 -1.966-6.186 44.787 44.787 0 0 1 19.945-2.314 1 1 0 1 0 .221-1.986 46.8 46.8 0 0 0 -20.115 2.149 12.019 12.019 0 0 1 2.646-6.176 1 1 0 0 0 -1.541-1.273 14.027 14.027 0 0 0 -3.19 8.9 14.889 14.889 0 0 0 4.008 10.156 12.936 12.936 0 0 0 3.029 8.18 6.022 6.022 0 0 0 -3.687 3.664h-.35a12.013 12.013 0 0 0 -12 12v11a1 1 0 0 0 2 0v-11a10.011 10.011 0 0 1 10-10v3a5.006 5.006 0 0 0 -5 5v6a3 3 0 0 0 3 3 1 1 0 0 0 0-2 1 1 0 0 1 -1-1v-6a3 3 0 0 1 3-3h2a3 3 0 0 1 3 3v6a1 1 0 0 1 -1 1 1 1 0 0 0 0 2 3 3 0 0 0 3-3v-6a5.006 5.006 0 0 0 -5-5v-3h1a1 1 0 0 0 0-2h-.444a3.981 3.981 0 0 1 3.178-1.973c.086.07.179.131.266.2v2.041a8.007 8.007 0 0 0 7 7.93v3.802a1 1 0 0 0 2 0v-3.8a8.011 8.011 0 0 0 6.805-6.2h4.195v6.142a4 4 0 1 0 2 0v-6.142h1a9.011 9.011 0 0 1 9 9v12a1 1 0 0 0 2 0v-12a11.013 11.013 0 0 0 -11-11zm0 12a2 2 0 1 1 -2-2 2 2 0 0 1 2 2zm-.034-33.3a12.831 12.831 0 0 1 -1.966 6.186v-6.836q1 .302 1.966.65zm-3.966 9.3a10.924 10.924 0 0 1 -2.516 6.976 8.951 8.951 0 0 0 .516-2.976v-3.586l2-2zm-22-1 2.4 1.8a.813.813 0 0 0 .837.145l.007.025a32.085 32.085 0 0 1 14.756-.179v3.209a7 7 0 0 1 -14 0 1 1 0 0 0 -2 0 8.927 8.927 0 0 0 .51 2.958 10.879 10.879 0 0 1 -2.51-6.958zm11 19.267a6.007 6.007 0 0 1 -6-6v-.746a12.91 12.91 0 0 0 12 0v.746a6.007 6.007 0 0 1 -6 6zm8-6.267v-1.774c.087-.068.18-.129.266-.2a3.981 3.981 0 0 1 3.178 1.974z"/><path d="m28.243 29.97 3.757-.939 3.757.939a.976.976 0 0 0 .243.03 1 1 0 0 0 .242-1.97l-4-1a1 1 0 0 0 -.486 0l-4 1a1 1 0 0 0 .486 1.94z"/><path d="m35.316 32.051-3-1a1 1 0 0 0 -.632 0l-3 1a1 1 0 1 0 .632 1.9l2.684-.897 2.684.895a1 1 0 0 0 .632-1.9z"/><path d="m34.293 19.293a1 1 0 0 0 1.414 1.414 1.831 1.831 0 0 1 2.586 0 1 1 0 0 0 1.414-1.414 3.832 3.832 0 0 0 -5.414 0z"/><path d="m24.293 19.293a1 1 0 0 0 1.414 1.414 1.831 1.831 0 0 1 2.586 0 1 1 0 0 0 1.414-1.414 3.832 3.832 0 0 0 -5.414 0z"/><circle cx="35" cy="53" r="1"/><circle cx="35" cy="57" r="1"/></g></g></g></svg>